<svg width="354" height="174" viewBox="0 0 354 174" fill="none" xmlns="http://www.w3.org/2000/svg">
<g filter="url(#filter0_f_11_36)">
<ellipse cx="178.42" cy="67.1615" rx="26.0422" ry="19.189" fill="#F4D842"/>
</g>
<path d="M181.21 58.8883C183.376 59.7356 185.219 60.8419 185.9 63.3418C186.309 64.7712 186.26 66.2927 185.759 67.6926C185.259 69.0925 184.333 70.3005 183.11 71.147C181.319 72.3051 179.294 73.056 177.181 73.3468C176.261 73.3745 175.343 73.2437 174.467 72.96C173.627 72.7944 172.789 72.5988 171.97 72.3513C169.796 71.6943 168.848 69.9151 168.081 67.9929C167.929 67.6134 167.878 67.1921 167.713 66.8202C166.544 64.1859 168.017 62.3142 169.515 60.4334C171.122 58.5347 173.218 57.1126 175.577 56.3213C177.217 55.726 178.937 55.3821 180.68 55.3012C184.976 54.9996 189.887 59.4328 190.147 63.6796C190.265 65.1071 190.29 66.5407 190.223 67.9714C189.972 69.5818 189.128 71.0404 187.858 72.0612C186.176 73.6215 184.166 74.7851 181.975 75.4663C180.261 76.0627 178.461 76.3728 176.647 76.3843C176.133 76.3944 175.62 76.5215 175.108 76.5087C174.6 76.5221 174.092 76.4452 173.61 76.2816C172.481 75.8195 171.402 75.2356 170.282 74.7495C168.327 73.9419 166.603 72.6615 165.264 71.0232C163.926 69.3849 163.015 67.4399 162.614 65.3628C161.988 63.0205 162.115 60.5408 162.977 58.2749C163.744 56.0122 165.217 54.0551 167.179 52.6915C168.707 51.6383 170.32 50.7135 172.001 49.9266C173.77 49.2368 175.61 48.7444 177.487 48.4583C179.038 48.2363 180.608 48.1635 182.173 48.2407C186.852 48.3531 190.206 50.8395 192.98 54.3696C194.963 57.0123 196.363 60.0445 197.09 63.267C197.627 65.3899 196.954 67.6028 196.525 69.7703C195.976 72.5444 194.21 74.4209 192.426 76.4065C190.806 78.2875 188.712 79.7003 186.361 80.4978C184.83 81.1071 183.178 81.3547 181.535 81.2214C180.133 81.215 178.733 81.3273 177.35 81.5572C175.955 81.6245 174.552 81.6005 173.155 81.5558C170.414 81.4128 167.709 80.8714 165.124 79.9487C161.686 78.9149 158.769 76.6125 156.965 73.5082C154.919 70.3561 153.818 66.6843 153.792 62.9266C153.764 60.6399 154.127 58.3652 154.863 56.2001C155.285 54.763 155.848 53.3708 156.542 52.0438C157.882 49.5611 159.74 47.3958 161.99 45.695C163.691 44.5879 165.344 43.4083 167.049 42.3098C169.631 40.8006 172.509 39.8669 175.485 39.5726C176.859 39.3421 178.255 39.2754 179.645 39.3739C182.142 39.5176 184.621 39.8852 187.052 40.4724C189.995 41.2987 192.97 42.2808 195.159 44.6653C196.934 46.3366 198.567 48.1528 200.04 50.095C201.435 52.4905 202.636 54.994 203.631 57.5814C204.71 60.3732 205.247 63.3449 205.214 66.3376C205.202 67.8816 204.999 69.4181 204.611 70.9125C203.595 74.9938 201.673 78.7942 198.989 82.0319C198.431 82.5253 197.795 82.9226 197.107 83.2077C195.289 84.5489 193.348 85.7143 191.309 86.6882C188.391 87.6808 185.402 88.4505 182.368 88.9907C180.716 89.3242 179.031 89.4678 177.347 89.4187C170.032 89.3432 162.86 87.3911 156.516 83.7494C154.134 82.2053 152.257 79.997 151.116 77.3975C150.678 76.6706 150.171 75.9868 149.603 75.3553C149.304 75.0771 149.04 74.7629 148.818 74.4197C148.742 74.0537 148.734 73.6769 148.795 73.308C149.238 73.2781 149.683 73.3234 150.112 73.442C150.455 73.6757 150.736 73.9901 150.93 74.3575C151.721 75.6749 152.592 76.9425 153.538 78.1532C154.565 79.4336 155.808 80.5245 157.21 81.3766C160.163 82.9686 163.228 84.3426 166.381 85.4878C168.62 86.1249 170.91 86.5679 173.225 86.8117C174.797 87.1573 176.397 87.3619 178.005 87.423C181.831 87.4557 185.592 86.4359 188.877 84.475C189.83 83.9259 190.82 83.4435 191.84 83.0313C193.326 82.3879 194.633 81.3939 195.65 80.1347C196.405 79.2107 197.401 78.4785 198.122 77.5331C199.431 75.723 200.363 73.6687 200.864 71.4919C201.648 67.9399 201.699 64.2653 201.014 60.6929C200.708 59.1148 200.273 57.5646 199.713 56.0579C199.389 54.7316 198.909 53.4483 198.284 52.2346C196.79 49.4019 194.586 47.0055 191.888 45.2799C189.708 43.8304 187.253 42.8465 184.676 42.3898C182.305 42.19 179.925 42.1374 177.548 42.2323C176.318 42.3195 175.094 42.4816 173.883 42.7176C171.13 43.1698 168.545 44.3415 166.39 46.1139C164.276 47.7131 162.402 49.6053 160.823 51.7336C159.753 53.1919 158.293 54.383 157.693 56.1568C157.27 57.3073 156.973 58.5002 156.808 59.7147C156.594 61.0993 156.606 62.5096 156.845 63.8903C157.295 65.6301 157.927 67.3175 158.732 68.9244C159.26 70.1622 159.986 71.3057 160.882 72.3099C162.28 73.7651 163.824 75.0737 165.488 76.2155C167.015 77.1984 168.638 78.0236 170.332 78.6783C171.487 79.0993 172.683 79.3967 173.9 79.5657C175.336 79.8879 176.798 80.075 178.268 80.1247C179.776 80.1026 181.275 79.878 182.723 79.4569C184.39 78.974 186.003 78.321 187.537 77.5083C188.936 76.8724 190.196 75.9652 191.243 74.8394C192.723 73.1283 193.73 71.0591 194.162 68.838C194.595 66.6169 194.438 64.3213 193.707 62.1797C193.394 61.201 193.165 60.1971 193.024 59.1792C192.673 56.6865 190.993 55.0996 189.225 53.631C187.651 52.0839 185.726 50.9411 183.615 50.3002C182.415 50.0218 181.189 49.869 179.958 49.8444C177.109 49.8409 174.293 50.4507 171.701 51.6323C169.186 52.891 167.259 55.0787 166.329 57.7325C166.266 57.9275 166.19 58.1184 166.103 58.3037C163.752 62.1441 164.735 65.6612 167.022 69.1393C168.47 71.0758 170.517 72.4796 172.846 73.1325C173.428 73.3163 173.998 73.5383 174.552 73.7972C176.294 74.7355 178.054 74.1983 179.745 73.7812C182.353 73.1261 184.713 71.7234 186.534 69.7454C187.083 69.2255 187.485 68.5698 187.699 67.8447C187.912 67.1197 187.931 66.351 187.752 65.6165C187.633 65.1198 187.582 64.6057 187.451 64.1125C187.103 62.6898 186.308 61.4162 185.183 60.4782C184.058 59.5402 182.662 58.9873 181.199 58.9005C179.023 58.0833 174.785 59.3876 174.169 61.0267C176.343 59.8172 178.528 58.5476 181.21 58.8883ZM176.283 66.6332C176.049 66.5512 175.833 66.4234 175.648 66.2573C175.463 66.0911 175.313 65.8899 175.207 65.6653C175.101 65.4407 175.04 65.1972 175.029 64.9489C175.017 64.7007 175.055 64.4527 175.14 64.2192C175.251 63.6042 175.588 63.0528 176.084 62.6728C176.58 62.2928 177.2 62.1116 177.823 62.1645C178.291 62.279 178.732 62.4855 179.12 62.772C179.507 63.0586 179.834 63.4194 180.081 63.8336C180.328 64.2477 180.489 64.7068 180.557 65.1841C180.624 65.6614 180.596 66.1473 180.474 66.6135C179.698 68.8839 176.776 69.6319 174.911 69.5168C172.983 69.3979 171.761 68.0816 171.302 65.7789C170.543 61.972 172.301 60.2049 174.849 58.6927C176.711 57.6928 178.841 57.3053 180.936 57.5853C182.978 57.6509 184.921 58.4803 186.38 59.9096C187.493 60.8821 188.3 62.1556 188.705 63.5765C188.776 63.4742 188.809 63.35 188.798 63.2258C188.776 63.0917 188.714 62.9645 188.687 62.8306C188.451 61.8289 188.004 60.8891 187.377 60.0734C186.749 59.2578 185.955 58.5852 185.047 58.1002C184.591 57.6988 184.074 57.3712 183.516 57.1292C179.559 56.2 175.964 57.438 172.46 59.1169C172.366 59.1616 172.282 59.2245 172.213 59.3018C171.426 60.2044 170.619 61.0908 169.866 62.0213C169.279 62.6456 168.871 63.4154 168.683 64.2508C168.494 65.0862 168.533 65.9568 168.794 66.7723C168.968 67.6889 169.355 68.5519 169.923 69.2917C170.492 70.0315 171.226 70.6276 172.067 71.0319C174.599 71.9768 177.228 72.6546 179.96 71.4856C182.845 70.2508 185.238 68.3972 184.889 64.5296C184.756 63.3849 184.218 62.3252 183.373 61.5416C182.528 60.758 181.431 60.3019 180.279 60.2554C178.326 60.3939 176.456 61.1035 174.902 62.2958C174.581 62.4702 174.3 62.7101 174.077 62.9999C173.854 63.2897 173.695 63.6231 173.609 63.9783C173.523 64.3336 173.513 64.703 173.579 65.0625C173.645 65.422 173.786 65.7636 173.992 66.0654C174.083 66.275 174.221 66.4609 174.395 66.6086C174.569 66.7562 174.775 66.8616 174.997 66.9165C175.219 66.9715 175.45 66.9745 175.673 66.9254C175.896 66.8762 176.105 66.7763 176.283 66.6332ZM200.998 53.9978L200.595 54.1254C200.737 54.7196 200.883 55.313 201.022 55.908C201.708 58.1268 202.214 60.3973 202.535 62.6973C202.989 65.9409 202.763 69.2436 201.87 72.3946C201.35 74.3082 200.497 76.1151 199.35 77.7325C198.189 79.0787 196.959 80.3638 195.665 81.5823C195.021 82.2902 194.277 82.901 193.458 83.3956C191.33 84.5067 189.126 85.4699 186.955 86.499C186.715 86.6128 186.496 86.7705 186.267 86.9078C189.405 86.4493 192.395 85.2743 195.006 83.4741C196.28 82.7242 197.438 81.794 198.446 80.7125C199.875 78.6147 201.166 76.4265 202.312 74.1616C202.616 73.4786 202.817 72.7543 202.909 72.0122C203.398 70.2006 203.719 68.3477 203.868 66.4771C203.854 64.3174 203.585 62.1669 203.066 60.0705C202.483 58.0116 201.793 55.9847 200.998 53.9978ZM155.499 59.7177C153.175 72.1184 162.247 80.4036 171.765 80.2446C167.309 78.918 162.856 77.0363 159.858 73.0851C156.929 69.2242 154.726 64.9301 155.499 59.7177ZM165.471 45.1335C168.05 43.3137 171.004 42.0973 174.117 41.5744C177.212 41.0551 180.36 40.9115 183.49 41.1466C179.391 39.2241 167.802 41.7408 165.471 45.1335ZM156.998 54.038L165.024 45.2205C161.499 47.5685 158.365 50.2543 156.998 54.038ZM194.574 59.6525C195.272 63.1411 196.22 66.6321 194.926 70.2162C195.715 68.5551 196.095 66.7294 196.034 64.8916C195.972 63.0538 195.472 61.2573 194.574 59.6525ZM173.563 88.111L173.691 87.9509L167.094 86.8217L167.049 87.0928L173.563 88.111ZM176.773 68.1125L176.914 68.3272L179.059 66.8876L178.952 66.741L176.773 68.1125Z" fill="black"/>
<path d="M152.077 43.0069C151.622 43.7595 151.217 44.4347 150.807 45.1065C150.388 45.7929 149.934 46.4599 149.553 47.1669C149.456 47.5613 149.321 47.9454 149.15 48.3138C149.018 48.4325 148.859 48.5171 148.687 48.5606C148.514 48.604 148.334 48.6048 148.162 48.5631C146.905 47.4008 145.717 46.1644 144.507 44.9506C143.252 43.6907 141.952 42.472 140.753 41.1607C139.44 39.7247 138.242 38.1843 136.956 36.723C133.887 33.2362 130.804 29.762 127.706 26.3004C126.65 25.1239 125.49 24.0417 124.417 22.8803C123.21 21.5755 122.019 20.2537 120.892 18.8817C120.728 18.4916 120.655 18.0695 120.678 17.647C121.044 17.5607 121.425 17.5611 121.79 17.6482C122.847 18.2857 123.867 18.9818 124.846 19.7333C126.477 20.9874 128.082 22.2745 129.662 23.5949C131.243 24.9146 132.784 26.2827 134.335 27.6389C136.019 29.111 137.697 30.5892 139.37 32.0732C140.832 33.3698 142.233 34.7402 143.75 35.967C146.175 37.9273 148.686 39.7814 151.131 41.7177C151.499 42.1061 151.816 42.5392 152.077 43.0069ZM151.033 43.0554C142.014 36.9574 134.729 29.1152 126.118 22.8484L148.041 47.2978C149.082 44.4615 149.513 43.8131 151.033 43.0554Z" fill="black"/>
<path d="M174.4 1.71001C174.677 3.90432 174.989 6.21798 175.255 8.53701C175.422 9.99502 175.495 11.4637 175.653 12.9229C175.945 15.6162 176.2 18.3164 176.596 20.9949C177.046 24.0321 177.585 27.0588 178.193 30.0681C178.487 30.9416 178.851 31.7897 179.282 32.604C179.441 32.9495 179.471 33.3408 179.366 33.7063C179.245 33.8267 179.1 33.92 178.94 33.98C178.781 34.04 178.61 34.0653 178.44 34.0543C177.822 34.0657 177.205 34.0009 176.603 33.8614C175.195 33.5119 174.017 34.3804 172.703 34.5348C171.589 34.6657 171.127 34.4315 171.193 33.2915C171.3 31.4465 171.515 29.608 171.658 27.7647C171.801 25.9117 171.886 24.0539 172.044 22.2023C172.268 19.5716 172.54 16.9449 172.785 14.3159C172.874 13.3612 172.999 12.4056 173.013 11.449C173.066 7.85761 173.07 4.26543 173.133 0.674343C173.16 0.528685 173.221 0.391583 173.312 0.274339C173.403 0.157094 173.52 0.0630649 173.654 0C173.815 0.0339259 173.966 0.102027 174.098 0.199682C174.23 0.297338 174.34 0.422263 174.419 0.565979C174.485 0.945159 174.478 1.3333 174.4 1.71001ZM174.159 11.4594C174.02 13.3437 173.917 15.2317 173.731 17.1114C173.522 19.2205 173.174 21.3171 173.002 23.4285C172.758 26.402 172.64 29.3855 172.424 32.3615C172.37 33.1024 172.706 33.2002 173.278 33.089C174.721 32.8092 176.161 32.5184 177.51 32.2501C175.693 25.451 174.57 18.4851 174.159 11.4594Z" fill="black"/>
<path d="M238.203 78.9972C236.15 78.5676 234.253 78.1114 232.333 77.7869C230.722 77.5146 229.085 77.3921 227.459 77.2105C225.444 76.9856 223.43 76.7598 221.414 76.5498C219.195 76.3187 216.974 76.0979 214.752 75.8875C214.069 75.8224 213.381 75.7818 212.695 75.7675C212.424 75.7517 212.154 75.8056 211.91 75.9241C211.773 76.0526 211.606 76.144 211.424 76.1899C211.242 76.2357 211.051 76.2344 210.87 76.186C210.689 76.1377 210.523 76.0439 210.388 75.9135C210.253 75.7832 210.153 75.6205 210.099 75.441C210.09 75.2811 210.12 75.1214 210.187 74.9756C210.253 74.8297 210.354 74.7021 210.48 74.6036C210.841 74.5613 211.176 74.3945 211.427 74.1319C211.679 73.8692 211.83 73.5272 211.857 73.1646C212.402 71.4732 213.012 69.7946 213.415 68.0686C213.444 67.2701 213.395 66.4706 213.271 65.6812C213.282 65.4973 213.336 65.3185 213.428 65.159C213.52 64.9995 213.648 64.8637 213.802 64.7624C214.004 64.6907 214.218 64.6605 214.432 64.6736C214.646 64.6867 214.854 64.7429 215.046 64.8388C216.76 65.8876 218.403 67.0523 220.115 68.1043C222.544 69.5965 224.952 71.1397 227.478 72.4528C230.668 74.1118 233.966 75.5635 237.221 77.0985C237.644 77.2387 238.053 77.4179 238.443 77.6338C238.687 77.893 238.883 78.1931 239.023 78.5202L238.203 78.9972ZM231.991 76.4321L215.224 66.7469C214.488 69.4321 213.808 71.9167 213.121 74.4235L231.991 76.4321Z" fill="black"/>
<path d="M218.102 17.159C219.101 17.6831 219.121 18.1943 218.53 19.0084C217.202 20.839 216.022 22.777 214.713 24.6231C213.669 26.0969 212.506 27.4863 211.428 28.9372C210.251 30.5213 209.112 32.1333 207.955 33.7328C206.526 35.7092 205.11 37.6952 203.662 39.6577C203.525 39.8835 203.337 40.074 203.113 40.2138C202.889 40.3537 202.635 40.439 202.372 40.4628C202.109 40.4867 201.844 40.4485 201.598 40.3513C201.352 40.2541 201.133 40.1006 200.957 39.9031C199.907 39.1071 198.702 38.5195 197.591 37.7995C197.201 37.5051 196.834 37.1807 196.494 36.8293C196.759 36.5282 197.039 36.241 197.333 35.9688C199.776 33.9161 202.225 31.8699 204.679 29.8302C206.392 28.4023 208.155 27.0301 209.81 25.5384C211.621 23.9066 213.358 22.19 215.077 20.4606C215.763 19.77 216.292 18.9254 216.938 18.1913C217.303 17.8217 217.691 17.4768 218.102 17.159ZM212.524 25.0716L198.764 36.4961C199.589 37.0335 200.418 37.5001 201.161 38.0774C202.128 38.8285 202.421 38.8501 203.179 37.8685C204.227 36.512 205.266 35.1481 206.272 33.7608C208.549 30.6206 210.804 27.4641 212.524 25.0716Z" fill="black"/>
<path d="M240.913 49.9684C238.941 50.735 237.001 51.5988 234.99 52.2455C231.921 53.1863 228.953 54.4293 226.129 55.9561C223.964 56.9977 221.744 57.9199 219.478 58.7187C217.831 59.358 216.221 60.0911 214.658 60.9144C213.887 61.3478 213.432 60.7781 212.824 60.7792C211.973 60.7808 211.936 60.1915 211.774 59.4792C211.409 57.9593 210.923 56.4709 210.322 55.028C209.976 54.1674 210.129 53.6122 211.077 53.4648C212.383 53.2614 213.704 53.1458 215.003 52.9047C216.85 52.5617 218.671 52.0679 220.524 51.7685C222.653 51.4245 224.813 51.2729 226.946 50.9475C230.508 50.404 234.06 49.7931 237.615 49.2001C238.27 49.0038 238.944 48.8809 239.626 48.8337C240.131 48.9904 240.599 49.2495 241 49.5949L240.913 49.9684ZM233.461 51.4035C226.278 51.9902 219.147 53.093 212.122 54.7034L213.499 59.9567L233.461 51.4035Z" fill="black"/>
<path d="M200.307 89.7231C200.38 90.2135 200.476 90.6999 200.597 91.1805C202.399 97.1424 205.476 102.521 208.315 108.008C208.947 109.23 209.654 110.414 210.273 111.642C210.341 111.949 210.344 112.267 210.282 112.576C209.929 112.596 209.576 112.534 209.252 112.395C208.631 111.853 208.061 111.256 207.549 110.611C205.132 107.61 202.78 104.557 200.325 101.588C198.791 99.734 197.111 98.0007 195.507 96.2042C194.796 95.4088 194.128 94.575 193.404 93.7929C193.13 93.4472 192.772 93.1781 192.363 93.0117C192.243 92.9999 192.127 92.9572 192.028 92.8877C191.929 92.8182 191.85 92.7242 191.797 92.615C191.745 92.5057 191.722 92.3849 191.73 92.2641C191.739 92.1433 191.778 92.0267 191.845 91.9255C191.868 91.8136 191.913 91.7074 191.978 91.6133C192.043 91.5191 192.126 91.4388 192.222 91.3772C192.319 91.3155 192.426 91.2736 192.539 91.254C192.652 91.2344 192.767 91.2375 192.879 91.2631C193.822 91.239 194.754 91.0445 195.628 90.6889C196.809 90.2402 197.906 89.576 199.072 89.0823C199.457 88.9789 199.862 88.9856 200.243 89.1018C200.396 89.2485 200.506 89.4335 200.563 89.6376L200.307 89.7231ZM206.173 106.475C205.899 105.946 205.466 105.132 205.049 104.309C203.824 101.892 202.527 99.5076 201.412 97.0407C200.669 95.3957 200.174 93.6365 199.597 91.9186C199.324 91.106 198.919 90.6497 198.002 91.0465C196.787 91.5726 195.567 92.0853 194.341 92.6069L206.173 106.475Z" fill="black"/>
<path d="M140.171 74.6213C137.332 74.8553 134.495 75.1088 131.654 75.3157C130.009 75.4355 128.358 75.4646 126.711 75.563C125.134 75.6573 123.561 75.8137 121.983 75.8905C121.373 75.9202 120.756 75.7687 120.142 75.7648C118.581 75.755 117.02 75.7814 115.459 75.7956C115.394 75.8162 115.326 75.827 115.258 75.8277C114.835 75.6536 114.419 75.4674 114 75.2848C114.265 74.8927 114.616 74.5665 115.027 74.3313C116.493 73.9981 118.018 73.9147 119.474 73.5484C122.997 72.6615 126.497 71.6791 130 70.714C131.982 70.168 133.967 69.6256 135.924 68.997C137.618 68.4528 139.271 67.7818 140.948 67.1848C141.296 67.0434 141.666 66.9654 142.041 66.9544C142.325 67.0186 142.595 67.135 142.837 67.2977C142.737 67.5526 142.586 67.7841 142.392 67.9775C142.085 68.1755 141.855 68.472 141.739 68.8182C141.623 69.1644 141.628 69.5398 141.753 69.8827C141.991 70.7036 142.293 71.5048 142.655 72.279C142.912 72.8313 143.11 73.4091 143.247 74.0029C143.198 74.165 143.109 74.3122 142.988 74.431C142.867 74.5498 142.718 74.6364 142.555 74.6829C141.765 74.7405 140.971 74.7515 140.18 74.7159L140.171 74.6213ZM141.216 73.5337L140.038 69.0642C133.322 70.9495 126.604 72.8355 120.107 74.6595C120.525 74.7455 120.951 74.7907 121.378 74.7945C123.471 74.6915 125.56 74.5267 127.652 74.4116C131.742 74.1865 135.834 73.9843 139.924 73.7576C140.359 73.7092 140.79 73.6344 141.216 73.5337Z" fill="black"/>
<path d="M161.267 93.0181C161.665 93.1964 162.047 93.4071 162.41 93.648C163.721 94.6716 165.374 95.1518 167.029 94.9889C167.172 94.9726 167.317 94.9851 167.455 95.0256C167.593 95.0662 167.721 95.134 167.833 95.225C167.88 95.3608 167.895 95.5055 167.877 95.648C167.859 95.7905 167.809 95.9271 167.731 96.0473C166.585 97.7953 165.382 99.5055 164.238 101.255C162.393 104.075 160.59 106.923 158.749 109.747C157.961 110.955 157.162 112.16 156.282 113.3C155.935 113.517 155.541 113.645 155.133 113.674C154.952 113.317 154.861 112.922 154.867 112.523C155.553 110.688 156.406 108.913 157.061 107.068C157.966 104.518 158.714 101.913 159.593 99.3534C159.993 98.1884 160.563 97.0827 161.026 95.938C161.195 95.6589 161.279 95.3364 161.267 95.0101C161.255 94.6839 161.148 94.3683 160.959 94.1023C160.976 93.7218 161.081 93.3505 161.267 93.0181ZM166.237 96.1861C165.597 96.1111 165.216 96.1042 164.854 96.0177C162.863 95.5428 162.819 95.5181 162.104 97.3418C160.775 100.736 159.505 104.154 158.21 107.562L158.458 107.66L166.237 96.1861Z" fill="black"/>
<path d="M149.125 18.5992C149.239 18.36 149.412 18.1534 149.627 17.9986C149.767 17.9696 149.913 17.9724 150.052 18.0068C150.191 18.0411 150.321 18.1061 150.432 18.197C151.507 19.3573 152.578 20.5255 153.568 21.7582C154.42 22.8209 155.152 23.9796 155.955 25.0834C157.851 27.6913 159.755 30.2935 161.666 32.8901C162.004 33.3194 162.374 33.7212 162.775 34.0917C162.927 34.1958 163.048 34.3373 163.129 34.5023C163.209 34.6674 163.245 34.8504 163.234 35.0336C163.222 35.2168 163.164 35.394 163.064 35.5479C162.964 35.7018 162.826 35.8272 162.663 35.9119C162.305 36.1533 161.808 36.1897 161.456 36.4355C160.63 37 159.839 37.6137 159.088 38.2735C158.896 38.4118 158.674 38.5013 158.44 38.5341C158.206 38.567 157.968 38.5423 157.746 38.4621C157.524 38.3819 157.325 38.2487 157.166 38.074C157.007 37.8994 156.893 37.6885 156.834 37.4599C156.178 35.7671 155.639 34.0274 154.945 32.3511C154.043 30.1716 152.984 28.0569 152.094 25.8727C151.385 24.1317 150.858 22.3171 150.189 20.5585C149.879 19.8822 149.523 19.2276 149.125 18.5992ZM157.897 36.8173C158.777 36.2834 159.556 35.8302 160.314 35.3439C160.96 34.9294 161.363 34.4524 160.662 33.7106C160.384 33.3606 160.126 32.9943 159.892 32.6137C157.286 29.0831 154.679 25.5541 152.069 22.0267L151.887 22.1262L157.897 36.8173Z" fill="black"/>
<path d="M141.882 58.7324C140.697 57.9241 139.543 57.066 138.321 56.317C134.873 54.2021 131.389 52.1443 127.945 50.0223C127.681 49.7308 127.485 49.3843 127.371 49.0078C127.669 48.7722 128.021 48.6141 128.395 48.5476C129.843 48.8157 131.258 49.2555 132.706 49.5214C135.898 50.1077 139.107 50.6052 142.299 51.1967C142.777 51.2896 143.199 51.5663 143.475 51.9672C143.806 52.5693 143.186 52.7567 142.82 53.151C142.385 53.826 142.145 54.6081 142.127 55.4109C142.156 55.9212 142.229 56.4279 142.346 56.9255C142.373 57.4948 142.301 58.069 142.271 58.6412L141.882 58.7324ZM132.188 50.8222L132.093 51.0316L140.556 56.3365L141.147 52.6372L132.188 50.8222Z" fill="black"/>
<path d="M147.578 83.3814C148.053 83.5263 148.498 83.7554 148.893 84.0576C149.981 85.365 151.461 86.2882 153.113 86.6909C153.25 86.7368 153.373 86.8135 153.475 86.9149C153.577 87.0163 153.654 87.1398 153.701 87.2759C153.617 87.8041 153.372 88.2935 152.999 88.6767C152.069 89.3022 150.986 89.6951 150.015 90.2672C148.184 91.3463 146.374 92.46 144.584 93.6083C143.408 94.3623 142.312 95.2424 141.121 95.9694C140.924 96.0437 140.714 96.075 140.504 96.0613C140.294 96.0476 140.089 95.9891 139.904 95.8898C139.775 95.5462 139.788 95.166 139.938 94.8315C140.158 94.4425 140.428 94.0835 140.74 93.7633C142.849 91.1053 144.998 88.4771 147.034 85.7647C147.353 85.0079 147.536 84.2014 147.578 83.3814ZM143.574 92.6717C144.907 91.8634 146.285 90.9984 147.692 90.1823C149.101 89.3647 150.539 88.5957 152.122 87.7174C151.665 87.4681 151.407 87.3169 151.14 87.1847C150.832 87.0323 150.505 86.9164 150.205 86.7502C148.811 85.9777 148.633 86.0205 147.649 87.3222C146.284 89.1264 144.908 90.9218 143.574 92.6717Z" fill="black"/>
<path d="M175.303 93.6838C176.714 93.6838 178.126 93.7172 179.534 93.6669C180.073 93.6477 180.601 93.3824 181.143 93.3338C181.5 93.2816 181.862 93.3693 182.155 93.5787C182.248 93.8945 182.233 94.2322 182.112 94.5385C181.792 96.1839 181.476 97.8304 181.116 99.4674C180.661 101.538 180.192 103.607 179.656 105.657C179.561 105.811 179.433 105.941 179.28 106.037C179.127 106.134 178.954 106.194 178.775 106.214C178.638 106.144 178.517 106.045 178.42 105.926C178.324 105.806 178.253 105.668 178.212 105.519C177.151 102.127 176.123 98.7256 175.074 95.3304C174.968 95.1165 174.846 94.9107 174.71 94.7148C174.543 94.4929 174.442 94.2291 174.417 93.9529C174.665 93.7424 174.953 93.5835 175.264 93.4855L175.303 93.6838ZM179.094 102.068L179.263 102.089L180.389 94.9438L176.582 95.1104L179.094 102.068Z" fill="black"/>
<path d="M209.878 78.9196C210.214 79.2205 210.519 79.5551 210.787 79.9183C212.172 82.3624 213.534 84.8193 214.874 87.289C214.957 87.4423 215.004 87.6124 215.012 87.7866C215.02 87.9608 214.988 88.1344 214.918 88.2945C214.778 88.3948 214.616 88.4595 214.446 88.483C214.275 88.5065 214.101 88.488 213.939 88.4291C211.235 87.2537 208.54 86.0533 205.875 84.791C205.489 84.4849 205.168 84.1056 204.93 83.6749C205.303 83.5018 205.665 83.3037 206.012 83.0821C206.616 82.6995 207.17 82.2431 207.66 81.7232C208.164 81.1097 208.456 80.3276 208.906 79.6632C209.194 79.3716 209.521 79.1213 209.878 78.9196ZM207.619 83.9874L212.53 85.9208L209.96 81.5074C209.203 82.3096 208.491 83.0637 207.619 83.9874Z" fill="black"/>
<path d="M205.329 44.7767C207.829 45.0917 209.623 43.671 211.648 43.159C213.332 42.7334 214.954 42.0658 216.619 41.559C216.928 41.563 217.232 41.6387 217.507 41.7802C217.459 42.18 217.322 42.5642 217.108 42.9053C215.757 44.1213 214.347 45.2726 212.949 46.4359C211.66 47.508 210.333 48.536 209.076 49.6433C208.979 49.7668 208.85 49.8613 208.703 49.9163C208.556 49.9714 208.396 49.9849 208.242 49.9554C208.088 49.9259 207.945 49.8545 207.829 49.7491C207.712 49.6436 207.627 49.5082 207.582 49.3576C206.999 48.0394 206.126 46.8698 205.028 45.9361C204.951 45.8122 204.903 45.6726 204.886 45.5276C204.87 45.3826 204.887 45.2358 204.935 45.0979C205.025 44.9482 205.164 44.8346 205.329 44.7767ZM207.33 46.0097L208.815 48.4186L213.745 44.0233L213.554 43.7429C211.512 44.4866 209.47 45.2303 207.33 46.0097Z" fill="black"/>
<path d="M190.405 22.7961C190.836 25.4955 191.225 28.2026 191.715 30.8913C191.977 32.33 191.5 32.9067 190.085 32.6518C188.712 32.4045 187.333 32.1885 185.956 31.9632C184.794 31.773 184.684 31.3726 185.229 30.3366C186.454 28.0073 187.586 25.6287 188.747 23.2657C188.82 23.0848 188.867 22.894 188.885 22.6996C188.981 22.0873 189.181 21.4394 189.907 21.5708C190.294 21.818 190.61 22.1605 190.826 22.5654L190.405 22.7961ZM189.313 25.4428L186.882 30.2942L190.275 31.3958L189.313 25.4428Z" fill="black"/>
<path d="M1.548 157.8C1.644 157.392 1.848 157.092 2.16 156.9C2.496 156.684 2.856 156.576 3.24 156.576C3.648 156.576 4.092 156.696 4.572 156.936C5.076 157.176 5.46 157.428 5.724 157.692C6.036 157.98 6.396 158.244 6.804 158.484C7.212 158.7 7.584 158.94 7.92 159.204C8.136 159.372 8.436 159.552 8.82 159.744C9.204 159.936 9.6 160.128 10.008 160.32C10.44 160.488 10.86 160.644 11.268 160.788C11.676 160.932 12.036 161.028 12.348 161.076C13.116 161.22 13.872 161.184 14.616 160.968C14.88 160.896 15.18 160.752 15.516 160.536C15.876 160.32 16.08 160.044 16.128 159.708C16.128 159.54 16.08 159.372 15.984 159.204C15.888 159.036 15.756 158.88 15.588 158.736C15.444 158.592 15.288 158.46 15.12 158.34C14.952 158.22 14.808 158.124 14.688 158.052C13.44 157.236 12.144 156.504 10.8 155.856C9.456 155.208 8.136 154.512 6.84 153.768C5.64 153.096 4.596 152.22 3.708 151.14C2.82 150.036 2.304 148.8 2.16 147.432C2.016 146.136 2.184 145.02 2.664 144.084C3.168 143.124 3.852 142.332 4.716 141.708C5.58 141.06 6.564 140.556 7.668 140.196C8.772 139.812 9.864 139.548 10.944 139.404C11.28 139.356 11.712 139.332 12.24 139.332C12.792 139.332 13.224 139.356 13.536 139.404C14.016 139.476 14.496 139.584 14.976 139.728C15.456 139.872 15.936 140.004 16.416 140.124C16.56 140.148 16.692 140.172 16.812 140.196C16.956 140.22 17.1 140.232 17.244 140.232C17.532 140.232 17.784 140.16 18 140.016C18.192 139.872 18.432 139.704 18.72 139.512C19.032 139.32 19.32 139.224 19.584 139.224C19.896 139.224 20.172 139.296 20.412 139.44C20.628 139.584 20.844 139.836 21.06 140.196C21.3 140.532 21.516 140.904 21.708 141.312C21.924 141.696 22.104 142.092 22.248 142.5C22.416 142.884 22.536 143.196 22.608 143.436C22.728 143.772 22.824 144.12 22.896 144.48C22.968 144.816 22.98 145.164 22.932 145.524C22.884 145.86 22.752 146.184 22.536 146.496C22.32 146.808 22.032 147 21.672 147.072C21.312 147.144 20.964 147.084 20.628 146.892C20.292 146.7 19.992 146.472 19.728 146.208C19.272 145.776 18.792 145.368 18.288 144.984C17.808 144.576 17.292 144.216 16.74 143.904C16.212 143.592 15.648 143.34 15.048 143.148C14.448 142.956 13.824 142.86 13.176 142.86C12.696 142.86 12.192 142.932 11.664 143.076C11.136 143.196 10.692 143.424 10.332 143.76C10.02 144.024 9.78 144.36 9.612 144.768C9.468 145.176 9.492 145.572 9.684 145.956C9.756 146.1 9.912 146.268 10.152 146.46C10.416 146.652 10.704 146.844 11.016 147.036C11.328 147.228 11.628 147.408 11.916 147.576C12.204 147.72 12.432 147.828 12.6 147.9C13.2 148.188 13.8 148.464 14.4 148.728C15.024 148.968 15.648 149.244 16.272 149.556C17.088 149.964 17.88 150.384 18.648 150.816C19.44 151.224 20.256 151.632 21.096 152.04C21.648 152.28 22.08 152.556 22.392 152.868C22.728 153.156 22.992 153.48 23.184 153.84C23.4 154.2 23.556 154.596 23.652 155.028C23.772 155.46 23.88 155.94 23.976 156.468C24.024 156.66 24.06 156.864 24.084 157.08C24.108 157.296 24.132 157.524 24.156 157.764C24.204 158.772 23.988 159.744 23.508 160.68C23.052 161.592 22.452 162.384 21.708 163.056C20.916 163.776 19.956 164.304 18.828 164.64C17.7 164.976 16.596 165.144 15.516 165.144C14.892 165.168 14.244 165.204 13.572 165.252C12.924 165.3 12.264 165.324 11.592 165.324C10.824 165.324 10.056 165.264 9.288 165.144C8.544 165.024 7.824 164.76 7.128 164.352C6.984 164.256 6.828 164.172 6.66 164.1C6.492 164.028 6.312 164.016 6.12 164.064C6.024 164.088 5.94 164.136 5.868 164.208C5.796 164.256 5.712 164.316 5.616 164.388C5.28 164.628 4.896 164.748 4.464 164.748C4.008 164.748 3.612 164.628 3.276 164.388C2.964 164.124 2.688 163.812 2.448 163.452C2.232 163.068 2.052 162.66 1.908 162.228C1.764 161.772 1.656 161.364 1.584 161.004C1.464 160.452 1.392 159.924 1.368 159.42C1.344 158.892 1.404 158.352 1.548 157.8ZM34.3091 148.62C34.4291 148.14 34.5491 147.72 34.6691 147.36C34.8131 147 34.9691 146.676 35.1371 146.388C35.3291 146.076 35.5451 145.764 35.7851 145.452C36.0251 145.14 36.3011 144.804 36.6131 144.444C37.2611 143.556 38.0171 142.8 38.8811 142.176C39.7691 141.528 40.7051 141 41.6891 140.592C42.6971 140.184 43.7291 139.884 44.7851 139.692C45.8651 139.5 46.9451 139.404 48.0251 139.404C49.3451 139.404 50.7251 139.56 52.1651 139.872C53.6291 140.16 54.9371 140.64 56.0891 141.312C56.4731 141.552 56.9171 141.888 57.4211 142.32C57.9491 142.728 58.4651 143.172 58.9691 143.652C59.4971 144.132 59.9771 144.624 60.4091 145.128C60.8411 145.632 61.1651 146.088 61.3811 146.496C61.7411 147.144 61.9931 147.852 62.1371 148.62C62.5451 150.396 62.6291 152.196 62.3891 154.02C62.1491 155.82 61.6091 157.512 60.7691 159.096C60.3611 159.912 59.9291 160.596 59.4731 161.148C59.0411 161.7 58.5491 162.18 57.9971 162.588C57.4691 162.972 56.8811 163.296 56.2331 163.56C55.5851 163.824 54.8411 164.064 54.0011 164.28C53.2331 164.496 52.4531 164.7 51.6611 164.892C50.8931 165.06 50.1131 165.168 49.3211 165.216C47.8571 165.336 46.4051 165.228 44.9651 164.892C43.5251 164.556 42.1211 164.148 40.7531 163.668C40.2011 163.476 39.7091 163.284 39.2771 163.092C38.8691 162.9 38.4971 162.684 38.1611 162.444C37.8251 162.204 37.5011 161.916 37.1891 161.58C36.9011 161.244 36.5891 160.824 36.2531 160.32C35.1491 158.592 34.4291 156.708 34.0931 154.668C33.7571 152.628 33.8291 150.612 34.3091 148.62ZM43.8131 158.484C44.5331 159.396 45.4091 160.128 46.4411 160.68C47.4971 161.208 48.6011 161.472 49.7531 161.472C50.5931 161.472 51.2891 161.352 51.8411 161.112C52.3931 160.848 52.8371 160.488 53.1731 160.032C53.5331 159.552 53.7851 158.988 53.9291 158.34C54.0971 157.692 54.2171 156.972 54.2891 156.18C54.4571 153.996 54.1931 151.944 53.4971 150.024C52.8251 148.08 51.6971 146.352 50.1131 144.84C49.6091 144.36 49.0691 143.964 48.4931 143.652C47.9411 143.34 47.3051 143.184 46.5851 143.184C45.6731 143.184 44.8811 143.4 44.2091 143.832C43.5371 144.264 42.9731 144.828 42.5171 145.524C42.0851 146.196 41.7611 146.952 41.5451 147.792C41.3291 148.608 41.2211 149.412 41.2211 150.204C41.1971 151.74 41.4251 153.264 41.9051 154.776C42.3851 156.264 43.0211 157.5 43.8131 158.484ZM70.7808 140.952C71.0448 140.616 71.4168 140.412 71.8968 140.34C72.3768 140.244 72.8208 140.196 73.2288 140.196C74.1408 140.22 75.0528 140.256 75.9648 140.304C76.8768 140.328 77.7888 140.316 78.7008 140.268C79.1568 140.244 79.6488 140.208 80.1768 140.16C80.7048 140.088 81.2208 140.052 81.7248 140.052C82.0608 140.052 82.3848 140.076 82.6968 140.124C83.0088 140.172 83.2968 140.256 83.5608 140.376C83.9688 140.568 84.2688 140.856 84.4608 141.24C84.6768 141.624 84.6768 142.044 84.4608 142.5C84.2928 142.836 84.0888 143.088 83.8488 143.256C83.6088 143.4 83.3568 143.52 83.0928 143.616C82.8528 143.688 82.6008 143.772 82.3368 143.868C82.0968 143.964 81.8688 144.132 81.6528 144.372C81.4128 144.636 81.2448 144.924 81.1488 145.236C81.0528 145.548 80.9928 145.872 80.9688 146.208C80.9688 146.544 80.9808 146.892 81.0048 147.252C81.0288 147.588 81.0408 147.912 81.0408 148.224C81.0648 149.352 81.0768 150.48 81.0768 151.608C81.1008 152.712 81.1248 153.828 81.1488 154.956C81.1488 155.316 81.1368 155.748 81.1128 156.252C81.0888 156.756 81.0768 157.26 81.0768 157.764C81.1008 158.244 81.1728 158.7 81.2928 159.132C81.4368 159.564 81.6768 159.912 82.0128 160.176C82.2288 160.32 82.5048 160.452 82.8408 160.572C83.2008 160.668 83.5608 160.752 83.9208 160.824C84.2808 160.872 84.6408 160.908 85.0008 160.932C85.3608 160.956 85.6728 160.968 85.9368 160.968C86.9448 160.968 87.9768 160.836 89.0328 160.572C89.5368 160.428 89.9688 160.176 90.3288 159.816C90.6888 159.456 91.0368 159.084 91.3728 158.7C91.4448 158.628 91.5408 158.508 91.6608 158.34C91.8048 158.148 91.9488 157.968 92.0928 157.8C92.2608 157.608 92.4168 157.452 92.5608 157.332C92.7288 157.188 92.8728 157.116 92.9928 157.116C93.3048 156.876 93.6648 156.756 94.0728 156.756C94.3128 156.756 94.5408 156.828 94.7568 156.972C95.0928 157.236 95.2608 157.596 95.2608 158.052C95.2608 158.508 95.2008 158.952 95.0808 159.384C94.8888 160.056 94.6968 160.728 94.5048 161.4C94.3128 162.072 94.1208 162.756 93.9288 163.452C93.7608 164.028 93.5328 164.496 93.2448 164.856C92.9568 165.192 92.4648 165.36 91.7688 165.36C91.4808 165.36 91.1568 165.3 90.7968 165.18C90.5568 165.084 90.3168 164.988 90.0768 164.892C89.8608 164.772 89.6328 164.676 89.3928 164.604C89.1288 164.532 88.8528 164.496 88.5648 164.496C88.2768 164.472 87.9888 164.472 87.7008 164.496C85.5408 164.592 83.3928 164.676 81.2568 164.748C79.1448 164.82 77.0088 164.904 74.8488 165C74.4888 165.024 74.1168 165.024 73.7328 165C73.3488 165 72.9768 164.94 72.6168 164.82C72.2568 164.7 71.9328 164.52 71.6448 164.28C71.3568 164.016 71.1648 163.704 71.0688 163.344C70.9968 163.008 71.0208 162.684 71.1408 162.372C71.2848 162.06 71.5008 161.808 71.7888 161.616C71.9808 161.496 72.1848 161.412 72.4008 161.364C72.6408 161.292 72.8568 161.196 73.0488 161.076C73.3848 160.884 73.6488 160.644 73.8408 160.356C74.0328 160.044 74.1768 159.708 74.2728 159.348C74.3688 158.988 74.4288 158.616 74.4528 158.232C74.4768 157.824 74.4888 157.428 74.4888 157.044C74.4408 155.436 74.3808 153.84 74.3088 152.256C74.2608 150.672 74.2128 149.076 74.1648 147.468V147C74.1648 146.736 74.1528 146.472 74.1288 146.208C74.1288 145.944 74.0928 145.68 74.0208 145.416C73.9248 145.08 73.7928 144.828 73.6248 144.66C73.4808 144.468 73.3008 144.324 73.0848 144.228C72.8688 144.108 72.6408 144 72.4008 143.904C72.1608 143.808 71.9088 143.688 71.6448 143.544C71.2128 143.28 70.8648 142.908 70.6008 142.428C70.3608 141.924 70.4208 141.432 70.7808 140.952ZM120.455 161.76C121.151 161.304 121.739 160.74 122.219 160.068C122.723 159.396 123.179 158.712 123.587 158.016C124.427 156.624 125.219 155.22 125.963 153.804C126.707 152.364 127.427 150.912 128.123 149.448C128.387 148.848 128.615 148.248 128.807 147.648C129.023 147.024 129.227 146.4 129.419 145.776C129.539 145.368 129.683 144.924 129.851 144.444C130.019 143.94 130.211 143.448 130.427 142.968C130.667 142.488 130.919 142.032 131.183 141.6C131.471 141.168 131.783 140.82 132.119 140.556C132.431 140.292 132.767 140.112 133.127 140.016C133.487 139.896 133.859 139.836 134.243 139.836C134.771 139.836 135.275 139.944 135.755 140.16C136.235 140.352 136.643 140.652 136.979 141.06C137.387 141.54 137.651 142.068 137.771 142.644C137.915 143.22 138.107 143.784 138.347 144.336C138.611 144.96 138.923 145.56 139.283 146.136C139.643 146.688 139.979 147.264 140.291 147.864C140.867 149.016 141.407 150.18 141.911 151.356C142.439 152.532 142.967 153.708 143.495 154.884C143.759 155.484 144.011 156.084 144.251 156.684C144.491 157.284 144.767 157.86 145.079 158.412C145.295 158.772 145.499 159.192 145.691 159.672C145.907 160.152 146.183 160.512 146.519 160.752C146.639 160.824 146.771 160.884 146.915 160.932C147.059 160.98 147.203 161.028 147.347 161.076C147.611 161.196 147.863 161.34 148.103 161.508C148.367 161.676 148.595 161.88 148.787 162.12C149.195 162.672 149.327 163.248 149.183 163.848C149.063 164.328 148.823 164.64 148.463 164.784C148.103 164.928 147.695 165 147.239 165C146.879 165 146.507 164.976 146.123 164.928C145.763 164.88 145.451 164.856 145.187 164.856L137.843 164.64C137.627 164.616 137.399 164.604 137.159 164.604C136.943 164.58 136.739 164.52 136.547 164.424C136.355 164.352 136.175 164.232 136.007 164.064C135.863 163.896 135.779 163.704 135.755 163.488C135.731 163.248 135.791 163.032 135.935 162.84C136.079 162.624 136.247 162.432 136.439 162.264C136.631 162.12 136.823 161.976 137.015 161.832C137.231 161.688 137.411 161.52 137.555 161.328C137.747 161.04 137.855 160.704 137.879 160.32C137.927 159.936 137.903 159.552 137.807 159.168C137.711 158.76 137.555 158.4 137.339 158.088C137.123 157.752 136.871 157.5 136.583 157.332C136.247 157.14 135.899 157.008 135.539 156.936C135.179 156.864 134.807 156.828 134.423 156.828C134.039 156.828 133.667 156.84 133.307 156.864C132.947 156.888 132.575 156.876 132.191 156.828C131.927 156.78 131.651 156.744 131.363 156.72C131.099 156.672 130.835 156.648 130.571 156.648C130.163 156.648 129.803 156.732 129.491 156.9C129.179 157.092 128.951 157.332 128.807 157.62C128.687 157.884 128.531 158.148 128.339 158.412C128.171 158.676 127.979 158.916 127.763 159.132C127.571 159.348 127.451 159.6 127.403 159.888C127.355 160.248 127.415 160.548 127.583 160.788C127.775 161.028 127.991 161.244 128.231 161.436C128.495 161.628 128.735 161.832 128.951 162.048C129.191 162.264 129.335 162.528 129.383 162.84C129.431 163.128 129.359 163.404 129.167 163.668C128.999 163.908 128.783 164.1 128.519 164.244C128.255 164.364 127.979 164.448 127.691 164.496C127.403 164.52 127.115 164.544 126.827 164.568C125.651 164.64 124.463 164.676 123.263 164.676C122.831 164.676 122.399 164.676 121.967 164.676C121.535 164.652 121.103 164.616 120.671 164.568C120.335 164.52 119.987 164.436 119.627 164.316C119.291 164.172 119.087 163.932 119.015 163.596C118.967 163.38 118.979 163.188 119.051 163.02C119.123 162.852 119.231 162.696 119.375 162.552C119.543 162.408 119.723 162.276 119.915 162.156C120.107 162.012 120.287 161.88 120.455 161.76ZM129.959 153.552C130.079 153.768 130.259 153.912 130.499 153.984C130.763 154.056 131.027 154.104 131.291 154.128C131.579 154.152 131.867 154.176 132.155 154.2C132.443 154.224 132.731 154.248 133.019 154.272C133.235 154.296 133.451 154.308 133.667 154.308C133.883 154.308 134.099 154.272 134.315 154.2C134.747 154.056 135.059 153.756 135.251 153.3C135.443 152.82 135.515 152.352 135.467 151.896C135.419 151.44 135.299 151.008 135.107 150.6C134.939 150.168 134.795 149.748 134.675 149.34C134.555 148.932 134.435 148.548 134.315 148.188C134.219 147.804 133.991 147.48 133.631 147.216C133.439 147.048 133.223 146.988 132.983 147.036C132.863 147.06 132.743 147.12 132.623 147.216C132.527 147.312 132.431 147.42 132.335 147.54C132.191 147.756 132.047 147.972 131.903 148.188C131.783 148.404 131.663 148.632 131.543 148.872C131.279 149.424 131.039 149.976 130.823 150.528C130.631 151.08 130.403 151.632 130.139 152.184C130.019 152.4 129.923 152.628 129.851 152.868C129.803 153.108 129.839 153.336 129.959 153.552ZM157.808 140.952C158 140.688 158.276 140.508 158.636 140.412C159.02 140.292 159.428 140.22 159.86 140.196C160.292 140.172 160.712 140.172 161.12 140.196C161.528 140.22 161.876 140.232 162.164 140.232C165.836 140.112 169.496 140.148 173.144 140.34C174.128 140.388 175.076 140.484 175.988 140.628C176.9 140.748 177.728 140.988 178.472 141.348C179.24 141.684 179.9 142.176 180.452 142.824C181.028 143.448 181.46 144.3 181.748 145.38C182.036 146.436 182.096 147.444 181.928 148.404C181.76 149.34 181.412 150.204 180.884 150.996C180.356 151.764 179.684 152.436 178.868 153.012C178.076 153.588 177.2 154.044 176.24 154.38C175.112 154.788 173.96 155.004 172.784 155.028C171.608 155.028 170.42 154.992 169.22 154.92C169.076 154.92 168.932 154.932 168.788 154.956C168.644 154.956 168.512 155.004 168.392 155.1C168.32 155.196 168.272 155.304 168.248 155.424C168.248 155.544 168.248 155.664 168.248 155.784C168.248 156.336 168.248 156.924 168.248 157.548C168.272 158.148 168.308 158.724 168.356 159.276C168.38 159.468 168.404 159.672 168.428 159.888C168.476 160.08 168.56 160.26 168.68 160.428C168.824 160.668 169.016 160.848 169.256 160.968C169.52 161.064 169.784 161.16 170.048 161.256C170.336 161.328 170.612 161.424 170.876 161.544C171.14 161.64 171.356 161.796 171.524 162.012C171.836 162.42 171.896 162.876 171.704 163.38C171.512 163.884 171.212 164.268 170.804 164.532C170.396 164.796 169.94 164.952 169.436 165C168.932 165.048 168.44 165.072 167.96 165.072C166.952 165.048 165.956 165.036 164.972 165.036C164.012 165.036 163.028 165.024 162.02 165C161.492 165 160.964 164.976 160.436 164.928C159.908 164.856 159.428 164.676 158.996 164.388C158.564 164.1 158.264 163.68 158.096 163.128C157.952 162.552 158.072 162.072 158.456 161.688C158.672 161.496 158.924 161.352 159.212 161.256C159.5 161.16 159.776 161.04 160.04 160.896C160.352 160.704 160.592 160.464 160.76 160.176C160.928 159.864 161.06 159.54 161.156 159.204C161.252 158.844 161.3 158.472 161.3 158.088C161.324 157.704 161.324 157.332 161.3 156.972C161.252 156.06 161.216 155.136 161.192 154.2C161.168 153.264 161.12 152.328 161.048 151.392C161 150.816 161 150.252 161.048 149.7C161.12 149.124 161.168 148.56 161.192 148.008C161.216 147.816 161.216 147.624 161.192 147.432C161.192 147.216 161.18 147.012 161.156 146.82C161.084 146.268 160.892 145.764 160.58 145.308C160.292 144.828 159.884 144.492 159.356 144.3C159.188 144.252 159.02 144.216 158.852 144.192C158.684 144.168 158.528 144.108 158.384 144.012C158.168 143.892 157.988 143.7 157.844 143.436C157.724 143.172 157.628 142.896 157.556 142.608C157.508 142.296 157.496 141.996 157.52 141.708C157.568 141.396 157.664 141.144 157.808 140.952ZM168.284 150.852C168.428 151.452 168.644 151.836 168.932 152.004C169.244 152.148 169.712 152.22 170.336 152.22C171.344 152.196 172.256 151.98 173.072 151.572C173.912 151.164 174.464 150.432 174.728 149.376C174.848 148.8 174.908 148.224 174.908 147.648C174.932 147.048 174.824 146.472 174.584 145.92C174.296 145.296 173.864 144.792 173.288 144.408C172.736 144.024 172.112 143.796 171.416 143.724C171.2 143.7 170.936 143.688 170.624 143.688C170.336 143.664 170.036 143.676 169.724 143.724C169.436 143.772 169.16 143.856 168.896 143.976C168.632 144.096 168.428 144.264 168.284 144.48C168.164 144.672 168.092 144.888 168.068 145.128C168.044 145.368 168.032 145.62 168.032 145.884C168.08 146.316 168.08 146.748 168.032 147.18C168.032 147.828 168.032 148.452 168.032 149.052C168.056 149.628 168.14 150.228 168.284 150.852ZM191.129 140.952C191.321 140.688 191.597 140.508 191.957 140.412C192.341 140.292 192.749 140.22 193.181 140.196C193.613 140.172 194.033 140.172 194.441 140.196C194.849 140.22 195.197 140.232 195.485 140.232C199.157 140.112 202.817 140.148 206.465 140.34C207.449 140.388 208.397 140.484 209.309 140.628C210.221 140.748 211.049 140.988 211.793 141.348C212.561 141.684 213.221 142.176 213.773 142.824C214.349 143.448 214.781 144.3 215.069 145.38C215.357 146.436 215.417 147.444 215.249 148.404C215.081 149.34 214.733 150.204 214.205 150.996C213.677 151.764 213.005 152.436 212.189 153.012C211.397 153.588 210.521 154.044 209.561 154.38C208.433 154.788 207.281 155.004 206.105 155.028C204.929 155.028 203.741 154.992 202.541 154.92C202.397 154.92 202.253 154.932 202.109 154.956C201.965 154.956 201.833 155.004 201.713 155.1C201.641 155.196 201.593 155.304 201.569 155.424C201.569 155.544 201.569 155.664 201.569 155.784C201.569 156.336 201.569 156.924 201.569 157.548C201.593 158.148 201.629 158.724 201.677 159.276C201.701 159.468 201.725 159.672 201.749 159.888C201.797 160.08 201.881 160.26 202.001 160.428C202.145 160.668 202.337 160.848 202.577 160.968C202.841 161.064 203.105 161.16 203.369 161.256C203.657 161.328 203.933 161.424 204.197 161.544C204.461 161.64 204.677 161.796 204.845 162.012C205.157 162.42 205.217 162.876 205.025 163.38C204.833 163.884 204.533 164.268 204.125 164.532C203.717 164.796 203.261 164.952 202.757 165C202.253 165.048 201.761 165.072 201.281 165.072C200.273 165.048 199.277 165.036 198.293 165.036C197.333 165.036 196.349 165.024 195.341 165C194.813 165 194.285 164.976 193.757 164.928C193.229 164.856 192.749 164.676 192.317 164.388C191.885 164.1 191.585 163.68 191.417 163.128C191.273 162.552 191.393 162.072 191.777 161.688C191.993 161.496 192.245 161.352 192.533 161.256C192.821 161.16 193.097 161.04 193.361 160.896C193.673 160.704 193.913 160.464 194.081 160.176C194.249 159.864 194.381 159.54 194.477 159.204C194.573 158.844 194.621 158.472 194.621 158.088C194.645 157.704 194.645 157.332 194.621 156.972C194.573 156.06 194.537 155.136 194.513 154.2C194.489 153.264 194.441 152.328 194.369 151.392C194.321 150.816 194.321 150.252 194.369 149.7C194.441 149.124 194.489 148.56 194.513 148.008C194.537 147.816 194.537 147.624 194.513 147.432C194.513 147.216 194.501 147.012 194.477 146.82C194.405 146.268 194.213 145.764 193.901 145.308C193.613 144.828 193.205 144.492 192.677 144.3C192.509 144.252 192.341 144.216 192.173 144.192C192.005 144.168 191.849 144.108 191.705 144.012C191.489 143.892 191.309 143.7 191.165 143.436C191.045 143.172 190.949 142.896 190.877 142.608C190.829 142.296 190.817 141.996 190.841 141.708C190.889 141.396 190.985 141.144 191.129 140.952ZM201.605 150.852C201.749 151.452 201.965 151.836 202.253 152.004C202.565 152.148 203.033 152.22 203.657 152.22C204.665 152.196 205.577 151.98 206.393 151.572C207.233 151.164 207.785 150.432 208.049 149.376C208.169 148.8 208.229 148.224 208.229 147.648C208.253 147.048 208.145 146.472 207.905 145.92C207.617 145.296 207.185 144.792 206.609 144.408C206.057 144.024 205.433 143.796 204.737 143.724C204.521 143.7 204.257 143.688 203.945 143.688C203.657 143.664 203.357 143.676 203.045 143.724C202.757 143.772 202.481 143.856 202.217 143.976C201.953 144.096 201.749 144.264 201.605 144.48C201.485 144.672 201.413 144.888 201.389 145.128C201.365 145.368 201.353 145.62 201.353 145.884C201.401 146.316 201.401 146.748 201.353 147.18C201.353 147.828 201.353 148.452 201.353 149.052C201.377 149.628 201.461 150.228 201.605 150.852ZM220.418 161.76C221.114 161.304 221.702 160.74 222.182 160.068C222.686 159.396 223.142 158.712 223.55 158.016C224.39 156.624 225.182 155.22 225.926 153.804C226.67 152.364 227.39 150.912 228.086 149.448C228.35 148.848 228.578 148.248 228.77 147.648C228.986 147.024 229.19 146.4 229.382 145.776C229.502 145.368 229.646 144.924 229.814 144.444C229.982 143.94 230.174 143.448 230.39 142.968C230.63 142.488 230.882 142.032 231.146 141.6C231.434 141.168 231.746 140.82 232.082 140.556C232.394 140.292 232.73 140.112 233.09 140.016C233.45 139.896 233.822 139.836 234.206 139.836C234.734 139.836 235.238 139.944 235.718 140.16C236.198 140.352 236.606 140.652 236.942 141.06C237.35 141.54 237.614 142.068 237.734 142.644C237.878 143.22 238.07 143.784 238.31 144.336C238.574 144.96 238.886 145.56 239.246 146.136C239.606 146.688 239.942 147.264 240.254 147.864C240.83 149.016 241.37 150.18 241.874 151.356C242.402 152.532 242.93 153.708 243.458 154.884C243.722 155.484 243.974 156.084 244.214 156.684C244.454 157.284 244.73 157.86 245.042 158.412C245.258 158.772 245.462 159.192 245.654 159.672C245.87 160.152 246.146 160.512 246.482 160.752C246.602 160.824 246.734 160.884 246.878 160.932C247.022 160.98 247.166 161.028 247.31 161.076C247.574 161.196 247.826 161.34 248.066 161.508C248.33 161.676 248.558 161.88 248.75 162.12C249.158 162.672 249.29 163.248 249.146 163.848C249.026 164.328 248.786 164.64 248.426 164.784C248.066 164.928 247.658 165 247.202 165C246.842 165 246.47 164.976 246.086 164.928C245.726 164.88 245.414 164.856 245.15 164.856L237.806 164.64C237.59 164.616 237.362 164.604 237.122 164.604C236.906 164.58 236.702 164.52 236.51 164.424C236.318 164.352 236.138 164.232 235.97 164.064C235.826 163.896 235.742 163.704 235.718 163.488C235.694 163.248 235.754 163.032 235.898 162.84C236.042 162.624 236.21 162.432 236.402 162.264C236.594 162.12 236.786 161.976 236.978 161.832C237.194 161.688 237.374 161.52 237.518 161.328C237.71 161.04 237.818 160.704 237.842 160.32C237.89 159.936 237.866 159.552 237.77 159.168C237.674 158.76 237.518 158.4 237.302 158.088C237.086 157.752 236.834 157.5 236.546 157.332C236.21 157.14 235.862 157.008 235.502 156.936C235.142 156.864 234.77 156.828 234.386 156.828C234.002 156.828 233.63 156.84 233.27 156.864C232.91 156.888 232.538 156.876 232.154 156.828C231.89 156.78 231.614 156.744 231.326 156.72C231.062 156.672 230.798 156.648 230.534 156.648C230.126 156.648 229.766 156.732 229.454 156.9C229.142 157.092 228.914 157.332 228.77 157.62C228.65 157.884 228.494 158.148 228.302 158.412C228.134 158.676 227.942 158.916 227.726 159.132C227.534 159.348 227.414 159.6 227.366 159.888C227.318 160.248 227.378 160.548 227.546 160.788C227.738 161.028 227.954 161.244 228.194 161.436C228.458 161.628 228.698 161.832 228.914 162.048C229.154 162.264 229.298 162.528 229.346 162.84C229.394 163.128 229.322 163.404 229.13 163.668C228.962 163.908 228.746 164.1 228.482 164.244C228.218 164.364 227.942 164.448 227.654 164.496C227.366 164.52 227.078 164.544 226.79 164.568C225.614 164.64 224.426 164.676 223.226 164.676C222.794 164.676 222.362 164.676 221.93 164.676C221.498 164.652 221.066 164.616 220.634 164.568C220.298 164.52 219.95 164.436 219.59 164.316C219.254 164.172 219.05 163.932 218.978 163.596C218.93 163.38 218.942 163.188 219.014 163.02C219.086 162.852 219.194 162.696 219.338 162.552C219.506 162.408 219.686 162.276 219.878 162.156C220.07 162.012 220.25 161.88 220.418 161.76ZM229.922 153.552C230.042 153.768 230.222 153.912 230.462 153.984C230.726 154.056 230.99 154.104 231.254 154.128C231.542 154.152 231.83 154.176 232.118 154.2C232.406 154.224 232.694 154.248 232.982 154.272C233.198 154.296 233.414 154.308 233.63 154.308C233.846 154.308 234.062 154.272 234.278 154.2C234.71 154.056 235.022 153.756 235.214 153.3C235.406 152.82 235.478 152.352 235.43 151.896C235.382 151.44 235.262 151.008 235.07 150.6C234.902 150.168 234.758 149.748 234.638 149.34C234.518 148.932 234.398 148.548 234.278 148.188C234.182 147.804 233.954 147.48 233.594 147.216C233.402 147.048 233.186 146.988 232.946 147.036C232.826 147.06 232.706 147.12 232.586 147.216C232.49 147.312 232.394 147.42 232.298 147.54C232.154 147.756 232.01 147.972 231.866 148.188C231.746 148.404 231.626 148.632 231.506 148.872C231.242 149.424 231.002 149.976 230.786 150.528C230.594 151.08 230.366 151.632 230.102 152.184C229.982 152.4 229.886 152.628 229.814 152.868C229.766 153.108 229.802 153.336 229.922 153.552ZM258.132 162.516C258.3 162.252 258.492 162.036 258.708 161.868C258.948 161.676 259.188 161.508 259.428 161.364C259.692 161.196 259.944 161.028 260.184 160.86C260.448 160.692 260.676 160.488 260.868 160.248C261.252 159.768 261.42 159.264 261.372 158.736C261.324 158.208 261.3 157.668 261.3 157.116C261.276 155.916 261.264 154.728 261.264 153.552C261.264 152.376 261.288 151.188 261.336 149.988C261.336 149.772 261.336 149.556 261.336 149.34C261.36 149.124 261.384 148.896 261.408 148.656C261.456 147.936 261.432 147.228 261.336 146.532C261.24 145.812 260.904 145.212 260.328 144.732C260.064 144.54 259.788 144.384 259.5 144.264C259.212 144.12 258.936 143.964 258.672 143.796C258.408 143.628 258.156 143.436 257.916 143.22C257.676 142.98 257.52 142.704 257.448 142.392C257.424 142.272 257.412 142.152 257.412 142.032C257.412 141.888 257.412 141.744 257.412 141.6C257.436 141.24 257.616 140.964 257.952 140.772C258.288 140.556 258.696 140.4 259.176 140.304C259.68 140.184 260.232 140.1 260.832 140.052C261.456 140.004 262.044 139.98 262.596 139.98C263.172 139.98 263.7 139.992 264.18 140.016C264.66 140.016 265.02 140.016 265.26 140.016C267.06 139.944 268.848 139.92 270.624 139.944C272.4 139.968 274.164 140.148 275.916 140.484C276.612 140.604 277.284 140.772 277.932 140.988C278.604 141.204 279.216 141.516 279.768 141.924C280.464 142.452 280.992 143.124 281.352 143.94C281.712 144.756 281.868 145.584 281.82 146.424C281.796 147.096 281.652 147.732 281.388 148.332C281.148 148.932 280.812 149.484 280.38 149.988C279.972 150.468 279.492 150.9 278.94 151.284C278.412 151.668 277.86 151.992 277.284 152.256C277.14 152.304 277.044 152.364 276.996 152.436C276.9 152.532 276.864 152.652 276.888 152.796C276.936 152.94 277.02 153.036 277.14 153.084C277.572 153.276 277.992 153.552 278.4 153.912C278.808 154.248 279.18 154.632 279.516 155.064C279.876 155.496 280.2 155.952 280.488 156.432C280.776 156.912 281.004 157.368 281.172 157.8C281.364 158.256 281.544 158.736 281.712 159.24C281.904 159.744 282.18 160.2 282.54 160.608C282.828 160.944 283.224 161.196 283.728 161.364C284.232 161.532 284.7 161.628 285.132 161.652C285.372 161.652 285.552 161.664 285.672 161.688C285.888 161.784 286.032 161.952 286.104 162.192C286.176 162.432 286.176 162.672 286.104 162.912C285.984 163.368 285.744 163.74 285.384 164.028C285.024 164.292 284.604 164.496 284.124 164.64C283.668 164.784 283.188 164.88 282.684 164.928C282.204 164.976 281.772 165 281.388 165C280.5 165 279.648 164.904 278.832 164.712C278.664 164.664 278.496 164.616 278.328 164.568C278.16 164.496 277.992 164.424 277.824 164.352C277.296 164.112 276.828 163.728 276.42 163.2C276.036 162.672 275.688 162.096 275.376 161.472C275.088 160.848 274.812 160.212 274.548 159.564C274.308 158.916 274.056 158.352 273.792 157.872C273.6 157.488 273.36 157.092 273.072 156.684C272.784 156.276 272.46 155.904 272.1 155.568C271.764 155.208 271.38 154.92 270.948 154.704C270.54 154.464 270.096 154.344 269.616 154.344C269.16 154.344 268.8 154.464 268.536 154.704C268.2 154.992 268.02 155.34 267.996 155.748C267.972 156.132 267.972 156.516 267.996 156.9C268.02 157.38 268.02 157.848 267.996 158.304C267.972 158.736 267.948 159.192 267.924 159.672C267.924 159.792 267.924 159.912 267.924 160.032C267.924 160.152 267.948 160.272 267.996 160.392C268.116 160.656 268.308 160.848 268.572 160.968C268.86 161.064 269.148 161.148 269.436 161.22C269.748 161.292 270.06 161.376 270.372 161.472C270.684 161.568 270.936 161.724 271.128 161.94C271.32 162.18 271.452 162.456 271.524 162.768C271.596 163.08 271.548 163.368 271.38 163.632C271.164 163.992 270.864 164.244 270.48 164.388C270.12 164.532 269.712 164.616 269.256 164.64C268.824 164.664 268.38 164.664 267.924 164.64C267.468 164.592 267.072 164.568 266.736 164.568C265.656 164.592 264.576 164.64 263.496 164.712C262.44 164.76 261.372 164.808 260.292 164.856C259.98 164.88 259.644 164.844 259.284 164.748C258.924 164.652 258.612 164.508 258.348 164.316C258.108 164.124 257.952 163.884 257.88 163.596C257.808 163.284 257.892 162.924 258.132 162.516ZM267.996 148.368C268.044 149.184 268.236 149.772 268.572 150.132C268.908 150.468 269.508 150.636 270.372 150.636C271.068 150.66 271.764 150.564 272.46 150.348C273.156 150.108 273.684 149.688 274.044 149.088C274.14 148.896 274.212 148.704 274.26 148.512C274.332 148.32 274.392 148.116 274.44 147.9C274.536 147.516 274.584 147.12 274.584 146.712C274.584 146.304 274.476 145.932 274.26 145.596C274.116 145.356 273.9 145.152 273.612 144.984C273.324 144.792 273.012 144.636 272.676 144.516C272.34 144.396 271.992 144.312 271.632 144.264C271.296 144.192 270.996 144.156 270.732 144.156C270.444 144.156 270.156 144.192 269.868 144.264C269.58 144.312 269.304 144.396 269.04 144.516C268.776 144.636 268.56 144.792 268.392 144.984C268.368 144.984 268.356 145.008 268.356 145.056C268.188 145.248 268.068 145.488 267.996 145.776C267.948 146.064 267.924 146.364 267.924 146.676C267.924 146.964 267.936 147.264 267.96 147.576C267.984 147.864 267.996 148.128 267.996 148.368ZM294.353 142.104C294.377 141.672 294.509 141.336 294.749 141.096C294.989 140.856 295.277 140.676 295.613 140.556C295.973 140.436 296.345 140.364 296.729 140.34C297.137 140.292 297.497 140.268 297.809 140.268C300.041 140.244 302.261 140.232 304.469 140.232C306.677 140.232 308.897 140.28 311.129 140.376C311.513 140.4 311.885 140.412 312.245 140.412C312.629 140.412 313.001 140.376 313.361 140.304C313.721 140.256 314.069 140.196 314.405 140.124C314.765 140.028 315.125 140.016 315.485 140.088C315.821 140.16 316.133 140.352 316.421 140.664C316.709 140.976 316.973 141.324 317.213 141.708C317.477 142.092 317.693 142.5 317.861 142.932C318.053 143.34 318.209 143.688 318.329 143.976C318.449 144.312 318.557 144.66 318.653 145.02C318.749 145.38 318.773 145.74 318.725 146.1C318.677 146.46 318.533 146.796 318.293 147.108C318.077 147.42 317.777 147.624 317.393 147.72C316.961 147.84 316.541 147.78 316.133 147.54C315.725 147.3 315.389 147.012 315.125 146.676C314.861 146.34 314.621 145.98 314.405 145.596C314.189 145.212 313.913 144.864 313.577 144.552C313.265 144.264 312.929 144.048 312.569 143.904C312.209 143.736 311.837 143.628 311.453 143.58C311.093 143.532 310.709 143.508 310.301 143.508C309.917 143.508 309.521 143.508 309.113 143.508C308.681 143.508 308.249 143.532 307.817 143.58C307.385 143.604 306.977 143.7 306.593 143.868C306.161 144.06 305.837 144.324 305.621 144.66C305.405 144.972 305.261 145.332 305.189 145.74C305.117 146.124 305.081 146.532 305.081 146.964C305.105 147.396 305.129 147.816 305.153 148.224C305.201 148.968 305.345 149.496 305.585 149.808C305.849 150.12 306.365 150.3 307.133 150.348C307.589 150.396 308.045 150.42 308.501 150.42C308.981 150.396 309.401 150.252 309.761 149.988C310.025 149.772 310.253 149.52 310.445 149.232C310.661 148.92 310.937 148.716 311.273 148.62C311.537 148.524 311.789 148.536 312.029 148.656C312.293 148.752 312.509 148.908 312.677 149.124C312.845 149.316 312.977 149.532 313.073 149.772C313.169 150.012 313.241 150.264 313.289 150.528C313.481 151.56 313.541 152.544 313.469 153.48C313.421 153.816 313.349 154.164 313.253 154.524C313.181 154.86 313.013 155.16 312.749 155.424C312.437 155.784 312.041 155.964 311.561 155.964C311.249 155.964 310.997 155.88 310.805 155.712C310.613 155.544 310.469 155.34 310.373 155.1C310.277 154.836 310.145 154.608 309.977 154.416C309.737 154.152 309.437 153.972 309.077 153.876C308.717 153.78 308.357 153.72 307.997 153.696C307.517 153.672 307.025 153.732 306.521 153.876C306.017 153.996 305.633 154.26 305.369 154.668C305.249 154.884 305.165 155.124 305.117 155.388C305.093 155.628 305.081 155.88 305.081 156.144C305.081 157.08 305.117 158.004 305.189 158.916C305.213 159.108 305.237 159.3 305.261 159.492C305.285 159.66 305.357 159.828 305.477 159.996C305.669 160.308 305.945 160.524 306.305 160.644C306.665 160.74 307.037 160.812 307.421 160.86C308.141 160.956 308.861 161.016 309.581 161.04C310.325 161.064 311.069 161.052 311.813 161.004C312.197 160.98 312.569 160.956 312.929 160.932C313.313 160.884 313.673 160.776 314.009 160.608C314.633 160.344 315.161 159.96 315.593 159.456C316.049 158.952 316.529 158.484 317.033 158.052C317.273 157.86 317.537 157.692 317.825 157.548C318.113 157.404 318.389 157.332 318.653 157.332C318.941 157.332 319.205 157.428 319.445 157.62C319.709 157.86 319.841 158.172 319.841 158.556C319.841 158.916 319.805 159.276 319.733 159.636C319.685 159.972 319.625 160.296 319.553 160.608C319.481 160.92 319.421 161.244 319.373 161.58C319.277 162.036 319.157 162.504 319.013 162.984C318.893 163.44 318.725 163.86 318.509 164.244C318.293 164.604 318.005 164.892 317.645 165.108C317.285 165.348 316.817 165.468 316.241 165.468C315.809 165.468 315.365 165.396 314.909 165.252C314.477 165.132 314.045 165.024 313.613 164.928C313.373 164.88 313.145 164.856 312.929 164.856C312.713 164.832 312.509 164.82 312.317 164.82C311.909 164.82 311.525 164.832 311.165 164.856C310.805 164.88 310.421 164.904 310.013 164.928C309.317 164.952 308.633 164.952 307.961 164.928C307.289 164.904 306.605 164.892 305.909 164.892C304.493 164.868 303.089 164.856 301.697 164.856C300.329 164.832 298.937 164.808 297.521 164.784C297.257 164.784 296.981 164.784 296.693 164.784C296.429 164.76 296.165 164.7 295.901 164.604C295.637 164.484 295.409 164.328 295.217 164.136C295.025 163.944 294.905 163.716 294.857 163.452C294.785 163.092 294.869 162.756 295.109 162.444C295.373 162.132 295.673 161.88 296.009 161.688C296.345 161.496 296.681 161.316 297.017 161.148C297.377 160.956 297.665 160.704 297.881 160.392C298.145 160.056 298.289 159.684 298.313 159.276C298.361 158.844 298.385 158.424 298.385 158.016C298.337 156.648 298.313 155.28 298.313 153.912C298.337 152.544 298.337 151.176 298.313 149.808V149.736C298.313 149.4 298.301 149.052 298.277 148.692C298.277 148.332 298.289 147.984 298.313 147.648C298.337 147.312 298.325 146.976 298.277 146.64C298.253 146.28 298.133 145.944 297.917 145.632C297.677 145.272 297.365 144.984 296.981 144.768C296.597 144.552 296.213 144.324 295.829 144.084C295.445 143.868 295.097 143.592 294.785 143.256C294.473 142.92 294.329 142.536 294.353 142.104ZM329.264 140.952C329.528 140.616 329.9 140.412 330.38 140.34C330.86 140.244 331.304 140.196 331.712 140.196C332.624 140.22 333.536 140.256 334.448 140.304C335.36 140.328 336.272 140.316 337.184 140.268C337.64 140.244 338.132 140.208 338.66 140.16C339.188 140.088 339.704 140.052 340.208 140.052C340.544 140.052 340.868 140.076 341.18 140.124C341.492 140.172 341.78 140.256 342.044 140.376C342.452 140.568 342.752 140.856 342.944 141.24C343.16 141.624 343.16 142.044 342.944 142.5C342.776 142.836 342.572 143.088 342.332 143.256C342.092 143.4 341.84 143.52 341.576 143.616C341.336 143.688 341.084 143.772 340.82 143.868C340.58 143.964 340.352 144.132 340.136 144.372C339.896 144.636 339.728 144.924 339.632 145.236C339.536 145.548 339.476 145.872 339.452 146.208C339.452 146.544 339.464 146.892 339.488 147.252C339.512 147.588 339.524 147.912 339.524 148.224C339.548 149.352 339.56 150.48 339.56 151.608C339.584 152.712 339.608 153.828 339.632 154.956C339.632 155.316 339.62 155.748 339.596 156.252C339.572 156.756 339.56 157.26 339.56 157.764C339.584 158.244 339.656 158.7 339.776 159.132C339.92 159.564 340.16 159.912 340.496 160.176C340.712 160.32 340.988 160.452 341.324 160.572C341.684 160.668 342.044 160.752 342.404 160.824C342.764 160.872 343.124 160.908 343.484 160.932C343.844 160.956 344.156 160.968 344.42 160.968C345.428 160.968 346.46 160.836 347.516 160.572C348.02 160.428 348.452 160.176 348.812 159.816C349.172 159.456 349.52 159.084 349.856 158.7C349.928 158.628 350.024 158.508 350.144 158.34C350.288 158.148 350.432 157.968 350.576 157.8C350.744 157.608 350.9 157.452 351.044 157.332C351.212 157.188 351.356 157.116 351.476 157.116C351.788 156.876 352.148 156.756 352.556 156.756C352.796 156.756 353.024 156.828 353.24 156.972C353.576 157.236 353.744 157.596 353.744 158.052C353.744 158.508 353.684 158.952 353.564 159.384C353.372 160.056 353.18 160.728 352.988 161.4C352.796 162.072 352.604 162.756 352.412 163.452C352.244 164.028 352.016 164.496 351.728 164.856C351.44 165.192 350.948 165.36 350.252 165.36C349.964 165.36 349.64 165.3 349.28 165.18C349.04 165.084 348.8 164.988 348.56 164.892C348.344 164.772 348.116 164.676 347.876 164.604C347.612 164.532 347.336 164.496 347.048 164.496C346.76 164.472 346.472 164.472 346.184 164.496C344.024 164.592 341.876 164.676 339.74 164.748C337.628 164.82 335.492 164.904 333.332 165C332.972 165.024 332.6 165.024 332.216 165C331.832 165 331.46 164.94 331.1 164.82C330.74 164.7 330.416 164.52 330.128 164.28C329.84 164.016 329.648 163.704 329.552 163.344C329.48 163.008 329.504 162.684 329.624 162.372C329.768 162.06 329.984 161.808 330.272 161.616C330.464 161.496 330.668 161.412 330.884 161.364C331.124 161.292 331.34 161.196 331.532 161.076C331.868 160.884 332.132 160.644 332.324 160.356C332.516 160.044 332.66 159.708 332.756 159.348C332.852 158.988 332.912 158.616 332.936 158.232C332.96 157.824 332.972 157.428 332.972 157.044C332.924 155.436 332.864 153.84 332.792 152.256C332.744 150.672 332.696 149.076 332.648 147.468V147C332.648 146.736 332.636 146.472 332.612 146.208C332.612 145.944 332.576 145.68 332.504 145.416C332.408 145.08 332.276 144.828 332.108 144.66C331.964 144.468 331.784 144.324 331.568 144.228C331.352 144.108 331.124 144 330.884 143.904C330.644 143.808 330.392 143.688 330.128 143.544C329.696 143.28 329.348 142.908 329.084 142.428C328.844 141.924 328.904 141.432 329.264 140.952Z" fill="black"/>
<defs>
<filter id="filter0_f_11_36" x="112.378" y="7.9725" width="132.084" height="118.378" filterUnits="userSpaceOnUse" color-interpolation-filters="sRGB">
<feFlood flood-opacity="0" result="BackgroundImageFix"/>
<feBlend mode="normal" in="SourceGraphic" in2="BackgroundImageFix" result="shape"/>
<feGaussianBlur stdDeviation="20" result="effect1_foregroundBlur_11_36"/>
</filter>
</defs>
</svg>
